<?xml version="1.0" encoding="utf-8"?>
<!-- Generator: Adobe Illustrator 15.0.0, SVG Export Plug-In . SVG Version: 6.00 Build 0)  -->
<!DOCTYPE svg PUBLIC "-//W3C//DTD SVG 1.1 Tiny//EN" "http://www.w3.org/Graphics/SVG/1.1/DTD/svg11-tiny.dtd">
<svg version="1.1" baseProfile="tiny" id="Layer_1" xmlns="http://www.w3.org/2000/svg" xmlns:xlink="http://www.w3.org/1999/xlink"
	 x="0px" y="0px" width="612px" height="792px" viewBox="0 0 612 792" overflow="inherit" xml:space="preserve">
<g>
	<path fill-rule="evenodd" fill="#FFFFFF" d="M171.14,61c-6.397,0.777-13.546,0.804-15.067,6.458
		c-8.884,0.751-10.87,8.4-15.683,13.223c-0.252,4.852-2.715,7.015-2.153,11.685c0.321,2.664,2.802,4.476,3.075,6.765
		c0.146,1.23-0.692,3.234-0.922,4.92c-0.775,5.685-0.772,10.802-2.768,15.375c-9.507,9.971-21.684-1.838-32.595-2.767
		c-5.856-0.499-12.883,0-19.68,0c-6.5,0-13.59,1.192-19.373,0.307c-4.127-0.631-8.126-3.988-11.685-5.842
		c-6.35-3.309-22.064-8.787-28.29-1.845C26,93.185,26,77.092,26,61C74.38,61,122.76,61,171.14,61z"/>
	<path fill-rule="evenodd" d="M171.14,61c3.895,0,7.79,0,11.685,0c2.643,0.146,5.037,3.211,8.303,3.69
		c2.393,0.351,4.601-0.689,6.458-0.308c2.818,0.58,5.492,3.795,4.613,7.688c6.188-1.325,15.961-3.271,24.292-2.46
		c2.367,2.26,0.521,6.846,3.075,8.917c0,0.41,0,0.82,0,1.23c-1.027,1.37-1.265,4.282,0,5.535c0,0.41,0,0.82,0,1.23
		c-2.637,3.368-2.127,6.288-3.998,9.225c-3.335,5.239-12.739,7.478-17.835,11.377c-4.258,3.258-3.952,6.521-4.612,14.453
		c-0.273,3.278-0.774,6.669-1.23,9.84c-1.282,8.915-3.478,15.12-3.075,23.985c0.144,3.155,0.238,6.326,0,9.225
		c-0.215,2.623-1.278,4.949-1.537,7.38c-1.168,10.961,2.61,20.306-2.153,28.29c-3.395,5.69-7.953,8.334-8.917,15.067
		c-1.811,12.641-3.956,24.221-3.998,36.9c-0.015,4.482,0.743,9.281,2.768,12.3c1.413,2.107,4.423,3.605,7.072,5.535
		c1.653,1.205,5.842,4.303,6.15,6.15c0.281,1.682-0.746,2.247-1.229,3.998c-0.452,1.635,0.284,2.529-0.922,3.382
		c-2.515,1.778-7.301-0.351-8.917-2.152c-5.123,8.701-12.854-2.695-13.223-8.61c-0.736-1.386-2.836-2.013-3.382-3.382
		c-0.719-1.803,0.058-4.195-0.308-6.15c-0.266-1.426-1.559-2.717-1.845-4.305c-0.589-3.269-0.105-7.258-0.308-11.07
		c-0.497-9.347-2.961-21.297-3.075-30.75c-10.662-2.046-15.314,4.566-19.988,9.533c-2.494,14.914-0.706,37.585,1.23,51.967
		c0.517,3.842,0.92,6.616,2.152,9.533c1.045,2.473,3.776,4.865,4.306,7.38c1.083,5.156-2.94,15.676-7.38,8.917
		c-2.838,0.883-5.289,1.464-7.688,0c-0.245-0.15-1.401-1.516-1.538-1.537c-1.057-0.169-2.295,1.102-3.382,0.922
		c-1.693-0.28-2.999-2.235-3.998-3.075c-3.551-7.919,4.276-14.738,2.153-24.907c-0.34-1.625-1.651-2.554-2.153-3.998
		c-2.205-6.352-2.148-17.159-2.768-24.6c-0.724-8.692-1.899-17.661-2.152-25.215c-0.159-4.732,1.921-11.297,0-15.068
		c-0.635-1.246-1.988-1.474-3.075-2.46c-2.874-2.606-5.64-6.467-8.61-7.38c-2.075,0.692-3.346,2.189-4.612,3.69
		c-1.577,9.146,5.184,12.382,11.377,14.76c1.23,1.934,2.962,4.921,1.537,7.687c-2.14-0.947-2.915,2.014-5.227,2.153
		c-1.406,0.084-2.141-0.338-3.383-1.538c-1.526,2.123-7.377,1.53-8.303-0.615c-6.443,3.283-4.422-5.362-5.227-12.3
		c-0.648-5.587-5.175-10.854-4.613-16.605c0.296-3.033,4.239-6.297,3.998-8.917c-0.268-2.905-7.096-6.725-10.455-4.305
		c-1.706,1.229-1.823,4.748-3.075,7.073c-1.151,2.138-3.549,4.248-5.228,6.765c-1.674,2.51-4.185,5.136-4.92,7.073
		c-0.592,1.562-0.168,3.174-0.615,4.92c-0.814,3.186-2.764,6.002-3.69,9.225c-2.453,8.533-1.024,18.487-2.768,29.212
		c-0.599,0.432-1.98,1.004-2.768,0.308c0.761,3.022-3.691,1.312-3.998,3.998c-3.357-0.276-2.477-1.252-5.535-0.308
		c-2.911-1.005-2.347-4.864-5.228-5.228c-0.97-4.637,1.364-7.012,3.69-11.377c4.013-7.532,7.682-17.405,8.61-27.368
		c0.718-7.703-0.886-15.665,0.615-22.14c0.745-3.213,3.96-6.798,3.997-10.455c0.017-1.602-0.928-2.97-1.229-4.613
		c-1.874-10.205,1.425-23.336,3.997-31.058c-3.843-2.235-7.598-2.835-11.377-4.612c-3.51-1.65-5.307-4.416-8.302-7.38
		c-2.253-2.229-6-5.529-8.61-6.458c-1.179-0.419-2.378,0.021-3.69-0.308c-1.101-0.276-2.677-1.56-4.305-2.152
		c-3.61-1.313-5.525-1.238-6.765-4.92c0-0.718,0-1.435,0-2.153c6.226-6.941,21.94-1.464,28.29,1.845
		c3.559,1.854,7.558,5.211,11.685,5.842c5.783,0.885,12.873-0.307,19.373-0.307c6.797,0,13.823-0.499,19.68,0
		c10.911,0.929,23.088,12.738,32.595,2.767c1.996-4.573,1.993-9.69,2.768-15.375c0.23-1.686,1.069-3.689,0.922-4.92
		c-0.273-2.289-2.754-4.101-3.075-6.765c-0.562-4.67,1.9-6.833,2.153-11.685c4.812-4.823,6.799-12.471,15.683-13.223
		C157.594,61.804,164.743,61.777,171.14,61z"/>
	<path fill-rule="evenodd" fill="#FFFFFF" d="M182.825,61c15.58,0,31.161,0,46.74,0c0,5.842,0,11.685,0,17.527
		c-2.554-2.072-0.708-6.657-3.075-8.917c-8.331-0.81-18.104,1.135-24.292,2.46c0.879-3.893-1.795-7.108-4.613-7.688
		c-1.856-0.382-4.064,0.659-6.458,0.308C187.861,64.211,185.468,61.146,182.825,61z"/>
	<path fill-rule="evenodd" fill="#FFFFFF" d="M229.565,79.758c0,1.845,0,3.69,0,5.535C228.3,84.04,228.538,81.127,229.565,79.758z"
		/>
	<path fill-rule="evenodd" fill="#FFFFFF" d="M229.565,86.522c0,73.491,0,146.988,0,220.478c-67.854,0-135.712,0-203.565,0
		c0-65.189,0-130.38,0-195.57c1.24,3.682,3.155,3.607,6.765,4.92c1.628,0.592,3.205,1.876,4.305,2.152
		c1.312,0.329,2.511-0.112,3.69,0.308c2.61,0.928,6.357,4.229,8.61,6.458c2.996,2.964,4.792,5.729,8.302,7.38
		c3.78,1.777,7.535,2.377,11.377,4.612c-2.572,7.722-5.871,20.853-3.997,31.058c0.301,1.643,1.246,3.011,1.229,4.613
		c-0.037,3.657-3.252,7.242-3.997,10.455c-1.501,6.475,0.103,14.437-0.615,22.14c-0.928,9.962-4.597,19.835-8.61,27.368
		c-2.326,4.366-4.66,6.741-3.69,11.377c2.88,0.363,2.316,4.223,5.228,5.228c3.058-0.944,2.178,0.032,5.535,0.308
		c0.307-2.686,4.759-0.975,3.998-3.998c0.787,0.697,2.169,0.124,2.768-0.308c1.744-10.725,0.315-20.68,2.768-29.212
		c0.926-3.223,2.876-6.04,3.69-9.225c0.446-1.746,0.022-3.358,0.615-4.92c0.735-1.937,3.247-4.563,4.92-7.073
		c1.679-2.517,4.077-4.626,5.228-6.765c1.251-2.325,1.369-5.843,3.075-7.073c3.359-2.42,10.187,1.4,10.455,4.305
		c0.242,2.62-3.701,5.885-3.998,8.917c-0.562,5.751,3.964,11.018,4.613,16.605c0.805,6.938-1.216,15.583,5.227,12.3
		c0.926,2.146,6.776,2.738,8.303,0.615c1.242,1.2,1.977,1.622,3.383,1.538c2.312-0.139,3.087-3.1,5.227-2.153
		c1.425-2.766-0.307-5.753-1.537-7.687c-6.193-2.378-12.954-5.614-11.377-14.76c1.266-1.501,2.537-2.998,4.612-3.69
		c2.97,0.913,5.736,4.773,8.61,7.38c1.087,0.986,2.44,1.214,3.075,2.46c1.921,3.771-0.159,10.336,0,15.068
		c0.253,7.554,1.429,16.523,2.152,25.215c0.62,7.441,0.563,18.249,2.768,24.6c0.501,1.444,1.813,2.372,2.153,3.998
		c2.124,10.169-5.704,16.988-2.153,24.907c0.999,0.84,2.304,2.795,3.998,3.075c1.087,0.18,2.325-1.091,3.382-0.922
		c0.137,0.021,1.292,1.387,1.538,1.537c2.398,1.464,4.85,0.883,7.688,0c4.44,6.758,8.464-3.761,7.38-8.917
		c-0.529-2.515-3.26-4.907-4.306-7.38c-1.232-2.917-1.635-5.691-2.152-9.533c-1.936-14.382-3.724-37.053-1.23-51.967
		c4.673-4.966,9.326-11.579,19.988-9.533c0.113,9.453,2.578,21.403,3.075,30.75c0.203,3.812-0.282,7.801,0.308,11.07
		c0.286,1.587,1.579,2.879,1.845,4.305c0.365,1.955-0.411,4.348,0.308,6.15c0.546,1.369,2.646,1.997,3.382,3.382
		c0.37,5.915,8.101,17.311,13.223,8.61c1.617,1.801,6.402,3.931,8.917,2.152c1.207-0.853,0.47-1.747,0.922-3.382
		c0.484-1.75,1.51-2.315,1.229-3.998c-0.308-1.847-4.497-4.945-6.15-6.15c-2.649-1.93-5.66-3.428-7.072-5.535
		c-2.024-3.019-2.782-7.818-2.768-12.3c0.042-12.679,2.187-24.259,3.998-36.9c0.965-6.733,5.523-9.377,8.917-15.067
		c4.763-7.984,0.985-17.329,2.153-28.29c0.259-2.432,1.322-4.757,1.537-7.38c0.238-2.899,0.144-6.07,0-9.225
		c-0.402-8.865,1.793-15.07,3.075-23.985c0.456-3.17,0.957-6.562,1.23-9.84c0.661-7.932,0.354-11.194,4.612-14.453
		c5.096-3.899,14.5-6.139,17.835-11.377C227.438,92.81,226.928,89.89,229.565,86.522z"/>
</g>
</svg>
