<?xml version="1.0" encoding="utf-8"?>
<!-- Generator: Adobe Illustrator 15.0.0, SVG Export Plug-In . SVG Version: 6.00 Build 0)  -->
<!DOCTYPE svg PUBLIC "-//W3C//DTD SVG 1.1 Tiny//EN" "http://www.w3.org/Graphics/SVG/1.1/DTD/svg11-tiny.dtd">
<svg version="1.1" baseProfile="tiny" id="Layer_1" xmlns="http://www.w3.org/2000/svg" xmlns:xlink="http://www.w3.org/1999/xlink"
	 x="0px" y="0px" width="569.971px" height="206.99px" viewBox="0 0 569.971 206.99" overflow="inherit" xml:space="preserve">
<path fill="#CF001C" d="M386.745,20.294c0.527,6.046,0.291,13.195,0.291,20.044c0,6.908,0.544,13.894-0.581,19.173
	c-5.848-0.079-11.697-4.235-18.593-5.229c-9.038-1.303-19.068-1.471-27.018,2.324c-9.329,4.455-17.963,17.499-11.329,30.793
	c2.02,4.044,7.83,9.067,12.782,11.039c5.385,2.144,14.897,3.162,22.949,2.324c8.269-0.86,14.929-5.837,22.369-6.101
	c0.663,11.84,0.115,26.4,0.29,37.766c-6.01,3.262-12.098,5.621-19.047,6.983c-1.305,0.255,0,0-1.288,0.278
	c-14.475,3.131-33.201,1.486-45.608-2.324c-2.703-0.83-5.506-2.438-8.134-3.776c-11.176-5.694-19.284-11.823-26.146-22.657
	c-5.633-8.897-10.438-22.865-9.004-38.928c0.167-1.873,0.234-3.34,0.59-5.236c0.379-2.02,0.933-4.412,1.443-6.384
	c1.034-3.998,3.111-8.084,4.938-11.911c1.785-3.74,3.697-7.314,6.101-10.458c10.581-13.847,26.837-22.899,49.966-24.111
	C359.624,12.964,373.477,14.914,386.745,20.294z"/>
<path fill="#CF001C" d="M547.101,99.019c3.854,3.901,5.901,7.496,8.347,11.287c2.874,4.457,1.142,5.517-2.245,10.211
	c-8.37,11.6-24.328,22.271-45.028,20.916c-12.734-0.834-22.099-5.265-29.05-11.91c-5.119,2.291-9.85,6.213-16.559,8.134
	c-22.727,6.508-54.055,3.892-61.006-16.56c-3.993-11.752,0.655-24.296,6.974-30.792c12.05-12.394,38.626-13.817,55.774-21.207
	c3.289-1.417,7.683-3.167,8.135-5.52c0.702-3.651-3.024-9.573-5.229-11.039c-6.601-4.389-22.575-2.857-30.212-0.581
	c-7.452,2.221-14.555,6.296-20.626,10.167c-4.316,2.752-7.73,6.474-11.91,7.553c-0.739-5.812-0.646-13.58-0.581-21.207
	c0.04-4.649-0.897-9.706,0.29-13.363c0.789-2.426,5.19-4.714,7.844-6.682c11.412-8.462,25.728-12.427,41.542-14.525
	c17.994-2.388,40.501,2.977,51.999,13.363c5.51,4.976,9.85,13.083,11.33,22.078c1.285,7.812,0.29,17.455,0.29,26.436
	c0,13.145-2.079,29.847,7.264,33.99C535.117,114.5,543.456,105.29,547.101,99.019z M466.269,88.684
	c-10.866,4.668-28.637,6.064-29.559,19.049c-0.996,14.027,12.779,17.924,25.273,13.654c3.496-1.195,10.962-4.914,11.62-7.554
	c0.371-1.49-0.267-4.492-0.378-7.024c-0.312-7.148,0.262-14.957-0.784-19.701C469.477,86.559,468.179,87.863,466.269,88.684z"/>
<path fill="#CF001C" d="M111.351,54.573c-2.592-0.023-5.047-2.089-7.843-3.486c-7.391-3.694-22.256-11.322-31.955-6.101
	c-1.997,1.075-4.762,3.465-4.938,6.681c-0.301,5.477,3.786,6.471,6.682,9.296c19.403,5.876,39.157,15.179,44.156,34.86
	c3.012,11.859-1.909,23.777-7.843,30.793c-3.582,4.234-10.574,8.933-16.559,11.039c-14.355,5.054-37.597,3.33-52.581,0
	c-3.229-0.719-7.389-2.16-11.62-3.776c-3.084-1.178-9.204-2.837-9.877-5.229c-1.515-5.383-0.888-11.635-0.691-16.694
	c0.244-6.263,0.289-7.375,0.691-16.131c3.813,0.68,6.531,3.733,9.877,5.81c7.784,4.833,24.259,13.538,35.731,8.135
	c3.127-1.474,6.052-4.715,5.52-9.295c-0.943-8.123-19.692-14.126-26.436-17.431c-11.7-5.733-23.338-14.052-24.983-28.759
	c-2.193-19.606,10.14-31.732,23.24-36.603c18.111-6.734,46.699-4.113,63.038,2.905c2.543,1.092,5.941,2.076,6.682,3.776
	c1.508,3.46,0.291,10.888,0.291,15.687C111.932,45.657,112.452,50.675,111.351,54.573z"/>
<path fill="#CF2027" d="M178.166,136.204c-1.567,3.896-0.871,8.697-0.871,13.361c0,13.502,0.258,29.477-0.291,41.832
	c-14.86,0.726-32.297,0.641-47.061,0c-1.062-49.955-0.581-102.91-0.581-154.254c0-7.084-0.707-14.382,0.872-21.207
	c10.697-0.023,23.984,0,36.022,0c3.748,0,7.064-0.174,10.749,0.581c0.89,2.375-0.75,7.128,0.871,9.586
	c2.205,0.854,3.946-1.295,5.229-2.324c6.092-4.881,14.47-9.037,25.274-9.877c14.887-1.158,27.636,2.839,36.312,9.005
	c9.438,6.708,17.431,17.657,21.497,29.921c5.209,15.712,4.24,38.706-2.033,53.452c-2.333,5.484-7.489,12.714-11.911,16.849
	c-11.144,10.423-24.916,17.545-45.608,17.722c-4.938,0.041-10.54-0.101-15.396-1.162
	C186.815,138.722,182.628,136.76,178.166,136.204z M189.205,52.249c-2.913,0.587-10.656,3.465-11.62,5.52
	c-0.889,1.896-0.628,6.469-0.628,9.624c0,3.337-0.062,6.558-0.062,9.938c0,4.331-0.987,16.693,0.981,19.656
	c1.29,1.942,7.248,2.925,10.458,3.486c18.383,3.211,33.117-6.458,33.117-24.112c0-15.684-11.232-25.634-27.888-24.402
	C192.563,52.032,190.445,51.999,189.205,52.249z"/>
<g>
	<path d="M224.306,189.532c-0.94,0.689-2.076,1.215-3.407,1.574c-1.333,0.36-2.703,0.541-4.113,0.541
		c-1.88,0-3.471-0.299-4.771-0.894c-1.3-0.595-2.358-1.434-3.172-2.514c-0.815-1.081-1.403-2.39-1.763-3.925
		c-0.36-1.535-0.541-3.227-0.541-5.076c0-3.979,0.893-7.042,2.679-9.188c1.786-2.146,4.386-3.22,7.802-3.22
		c1.723,0,3.109,0.142,4.159,0.423c1.049,0.282,1.998,0.643,2.844,1.081l-1.457,4.982c-0.721-0.345-1.434-0.611-2.139-0.799
		c-0.705-0.188-1.512-0.282-2.42-0.282c-1.692,0-2.977,0.557-3.854,1.668c-0.877,1.113-1.316,2.891-1.316,5.335
		c0,1.003,0.109,1.927,0.329,2.773c0.219,0.846,0.548,1.582,0.987,2.209c0.438,0.627,1.01,1.12,1.715,1.48s1.528,0.54,2.468,0.54
		c1.034,0,1.911-0.133,2.632-0.399c0.72-0.266,1.363-0.588,1.927-0.964L224.306,189.532z"/>
</g>
<g>
	<path d="M240.85,160.862c0-0.908,0.336-1.684,1.01-2.326c0.673-0.643,1.605-0.964,2.797-0.964c1.19,0,2.154,0.321,2.89,0.964
		c0.736,0.643,1.104,1.418,1.104,2.326c0,0.909-0.369,1.668-1.104,2.279c-0.736,0.611-1.7,0.917-2.89,0.917
		c-1.191,0-2.124-0.306-2.797-0.917C241.187,162.53,240.85,161.771,240.85,160.862z M241.743,167.489h6.11v23.5h-6.11V167.489z"/>
</g>
<g>
	<path d="M281.364,190.989v-13.348c0-1.911-0.275-3.29-0.823-4.137c-0.548-0.846-1.48-1.269-2.796-1.269
		c-1.16,0-2.138,0.337-2.938,1.011c-0.799,0.674-1.371,1.512-1.715,2.515v15.228h-6.11v-23.5h4.841l0.705,3.102h0.188
		c0.72-1.002,1.676-1.88,2.867-2.632c1.19-0.752,2.726-1.128,4.606-1.128c1.159,0,2.192,0.157,3.102,0.47
		c0.909,0.314,1.676,0.831,2.304,1.552c0.626,0.721,1.096,1.7,1.41,2.938c0.312,1.238,0.469,2.766,0.469,4.582v14.617H281.364z"/>
</g>
<g>
	<path d="M322.395,189.532c-0.94,0.689-2.076,1.215-3.407,1.574c-1.332,0.36-2.703,0.541-4.113,0.541
		c-1.879,0-3.471-0.299-4.77-0.894c-1.301-0.595-2.358-1.434-3.173-2.514c-0.815-1.081-1.403-2.39-1.763-3.925
		c-0.36-1.535-0.541-3.227-0.541-5.076c0-3.979,0.894-7.042,2.68-9.188c1.786-2.146,4.387-3.22,7.803-3.22
		c1.723,0,3.108,0.142,4.158,0.423c1.05,0.282,1.998,0.643,2.844,1.081l-1.457,4.982c-0.721-0.345-1.434-0.611-2.139-0.799
		c-0.705-0.188-1.512-0.282-2.42-0.282c-1.691,0-2.977,0.557-3.854,1.668c-0.878,1.113-1.316,2.891-1.316,5.335
		c0,1.003,0.109,1.927,0.329,2.773c0.219,0.846,0.548,1.582,0.987,2.209c0.438,0.627,1.01,1.12,1.715,1.48s1.527,0.54,2.468,0.54
		c1.034,0,1.911-0.133,2.632-0.399c0.721-0.266,1.363-0.588,1.928-0.964L322.395,189.532z"/>
</g>
<g>
	<path d="M338.939,160.862c0-0.908,0.337-1.684,1.011-2.326c0.673-0.643,1.605-0.964,2.797-0.964c1.189,0,2.153,0.321,2.89,0.964
		c0.735,0.643,1.104,1.418,1.104,2.326c0,0.909-0.369,1.668-1.104,2.279c-0.736,0.611-1.7,0.917-2.89,0.917
		c-1.191,0-2.124-0.306-2.797-0.917C339.276,162.53,338.939,161.771,338.939,160.862z M339.833,167.489h6.109v23.5h-6.109V167.489z"
		/>
</g>
<g>
	<path d="M379.453,190.989v-13.348c0-1.911-0.274-3.29-0.823-4.137c-0.548-0.846-1.48-1.269-2.796-1.269
		c-1.159,0-2.138,0.337-2.938,1.011c-0.799,0.674-1.371,1.512-1.716,2.515v15.228h-6.109v-23.5h4.841l0.705,3.102h0.188
		c0.72-1.002,1.676-1.88,2.866-2.632s2.726-1.128,4.606-1.128c1.158,0,2.192,0.157,3.102,0.47c0.908,0.314,1.676,0.831,2.303,1.552
		s1.097,1.7,1.41,2.938c0.312,1.238,0.471,2.766,0.471,4.582v14.617H379.453z"/>
</g>
<g>
	<path d="M418.228,190.989v-13.348c0-1.911-0.275-3.29-0.822-4.137c-0.549-0.846-1.48-1.269-2.797-1.269
		c-1.16,0-2.139,0.337-2.938,1.011s-1.371,1.512-1.715,2.515v15.228h-6.11v-23.5h4.841l0.705,3.102h0.188
		c0.721-1.002,1.676-1.88,2.867-2.632c1.19-0.752,2.727-1.128,4.606-1.128c1.159,0,2.192,0.157,3.102,0.47
		c0.909,0.314,1.677,0.831,2.304,1.552c0.626,0.721,1.096,1.7,1.41,2.938c0.312,1.238,0.469,2.766,0.469,4.582v14.617H418.228z"/>
</g>
<g>
	<path d="M442.479,168.853c1.254-0.564,2.742-1.011,4.465-1.34c1.724-0.329,3.525-0.493,5.406-0.493
		c1.628,0,2.991,0.196,4.088,0.587c1.097,0.393,1.967,0.948,2.609,1.669c0.642,0.721,1.096,1.582,1.362,2.585
		s0.399,2.131,0.399,3.384c0,1.379-0.047,2.766-0.141,4.159c-0.094,1.395-0.148,2.766-0.164,4.113
		c-0.017,1.348,0.023,2.655,0.117,3.924c0.094,1.27,0.328,2.468,0.705,3.596h-4.982l-0.986-3.243h-0.235
		c-0.628,0.972-1.497,1.81-2.608,2.515c-1.113,0.705-2.547,1.058-4.301,1.058c-1.098,0-2.084-0.164-2.961-0.493
		s-1.629-0.799-2.256-1.41s-1.113-1.332-1.457-2.162c-0.346-0.83-0.518-1.763-0.518-2.797c0-1.44,0.321-2.655,0.964-3.643
		c0.642-0.986,1.566-1.785,2.772-2.396c1.207-0.611,2.648-1.034,4.324-1.27c1.676-0.234,3.549-0.305,5.617-0.211
		c0.219-1.755,0.094-3.016-0.377-3.783c-0.469-0.768-1.52-1.152-3.148-1.152c-1.222,0-2.515,0.126-3.877,0.376
		c-1.363,0.252-2.484,0.581-3.361,0.987L442.479,168.853z M450.235,186.336c1.222,0,2.192-0.273,2.914-0.822
		c0.72-0.548,1.252-1.136,1.598-1.763v-3.055c-0.972-0.094-1.904-0.109-2.797-0.047c-0.893,0.063-1.685,0.204-2.373,0.423
		c-0.689,0.22-1.238,0.533-1.645,0.94c-0.408,0.407-0.611,0.924-0.611,1.551c0,0.877,0.258,1.559,0.775,2.044
		C448.613,186.094,449.325,186.336,450.235,186.336z"/>
</g>
<g>
	<path d="M476.647,167.489h3.243v-4.418l6.11-1.739v6.157h5.733v5.17h-5.733v9.024c0,1.629,0.164,2.796,0.493,3.501
		s0.947,1.058,1.856,1.058c0.627,0,1.167-0.062,1.621-0.188s0.964-0.313,1.527-0.564l1.082,4.7
		c-0.847,0.407-1.834,0.752-2.961,1.034c-1.129,0.281-2.272,0.423-3.432,0.423c-2.162,0-3.752-0.557-4.771-1.669
		c-1.019-1.111-1.527-2.938-1.527-5.476v-11.844h-3.243V167.489z"/>
</g>
<g>
	<path d="M508.326,160.862c0-0.908,0.337-1.684,1.011-2.326c0.673-0.643,1.605-0.964,2.797-0.964c1.189,0,2.153,0.321,2.89,0.964
		c0.735,0.643,1.104,1.418,1.104,2.326c0,0.909-0.369,1.668-1.104,2.279c-0.736,0.611-1.7,0.917-2.89,0.917
		c-1.191,0-2.124-0.306-2.797-0.917C508.663,162.53,508.326,161.771,508.326,160.862z M509.22,167.489h6.109v23.5h-6.109V167.489z"
		/>
</g>
</svg>
